<?xml version="1.0" encoding="UTF-8" standalone="no"?>
<!DOCTYPE svg PUBLIC "-//W3C//DTD SVG 1.1//EN" "http://www.w3.org/Graphics/SVG/1.1/DTD/svg11.dtd">
<svg width="100%" height="100%" viewBox="0 0 1024 768" version="1.1" xmlns="http://www.w3.org/2000/svg" xmlns:xlink="http://www.w3.org/1999/xlink" xml:space="preserve" xmlns:serif="http://www.serif.com/" style="fill-rule:evenodd;clip-rule:evenodd;stroke-linecap:round;stroke-linejoin:round;stroke-miterlimit:2;">
    <g transform="matrix(4.78924,0,0,4.78924,512,287.77)">
        <g transform="matrix(1,0,0,1,-57.6667,-57.6667)">
            <g transform="matrix(0.921053,0,0,0.921053,5.16644,0.644216)">
                <path d="M4.115,24.605C1.567,26.095 -0.008,28.888 0,31.901L0,109.497C0,109.506 0,109.515 0,109.524C0,114.114 3.676,117.891 8.143,117.891C9.474,117.891 10.785,117.556 11.96,116.915C12.069,116.855 12.176,116.792 12.281,116.722L33.691,102.327C34.268,101.941 34.617,101.278 34.615,100.57L34.615,7.115C34.615,7.113 34.615,7.111 34.615,7.109C34.615,5.962 33.696,5.017 32.579,5.017C32.17,5.017 31.77,5.144 31.432,5.381L4.115,24.605Z" style="fill:rgb(8,60,93);fill-rule:nonzero;stroke:rgb(50,140,193);stroke-width:5.79px;"/>
                <path d="M45.895,5.248C45.565,5.028 45.18,4.91 44.786,4.91C43.671,4.91 42.752,5.852 42.75,6.997L42.75,100.492C42.748,101.2 43.097,101.862 43.674,102.249L68.102,118.57C68.433,118.792 68.819,118.91 69.214,118.91C70.331,118.91 71.25,117.966 71.25,116.819L71.25,23.384C71.252,22.675 70.902,22.011 70.324,21.624L45.895,5.248Z" style="fill:rgb(8,60,93);fill-rule:nonzero;stroke:rgb(50,140,193);stroke-width:5.79px;"/>
                <path d="M110.063,7.12C107.624,5.586 104.566,5.499 102.048,6.89C101.938,6.948 101.832,7.013 101.729,7.084L80.316,21.465C79.739,21.852 79.391,22.514 79.393,23.222L79.393,116.69C79.393,116.693 79.393,116.695 79.393,116.698C79.393,117.846 80.312,118.79 81.428,118.79C81.839,118.79 82.24,118.662 82.579,118.424L109.824,99.216C112.403,97.737 114.005,94.929 114,91.894L114,14.497C114.034,11.503 112.538,8.7 110.063,7.12Z" style="fill:rgb(8,60,93);fill-rule:nonzero;stroke:rgb(50,140,193);stroke-width:5.79px;"/>
            </g>
        </g>
    </g>
    <g transform="matrix(1,0,0,1,-150.883,29.6052)">
        <g transform="matrix(180,0,0,180,195.693,692.604)">
            <path d="M0.448,-0.156C0.443,-0.151 0.435,-0.147 0.426,-0.144C0.417,-0.141 0.406,-0.139 0.394,-0.139C0.38,-0.139 0.368,-0.141 0.358,-0.146C0.347,-0.15 0.34,-0.157 0.336,-0.166C0.305,-0.237 0.279,-0.299 0.257,-0.354C0.234,-0.409 0.216,-0.454 0.203,-0.491L0.198,-0.491C0.196,-0.444 0.194,-0.4 0.193,-0.361C0.191,-0.321 0.189,-0.282 0.187,-0.244C0.185,-0.206 0.183,-0.167 0.181,-0.128C0.178,-0.089 0.176,-0.046 0.173,-0.001C0.168,0.001 0.161,0.003 0.153,0.005C0.144,0.006 0.135,0.007 0.126,0.007C0.09,0.007 0.072,-0.008 0.072,-0.037C0.072,-0.046 0.073,-0.061 0.074,-0.083C0.075,-0.105 0.076,-0.131 0.078,-0.162C0.079,-0.192 0.081,-0.225 0.084,-0.262C0.086,-0.299 0.088,-0.336 0.091,-0.374C0.094,-0.411 0.096,-0.448 0.099,-0.485C0.102,-0.521 0.104,-0.554 0.107,-0.585C0.112,-0.59 0.121,-0.596 0.134,-0.602C0.146,-0.608 0.161,-0.611 0.179,-0.611C0.2,-0.611 0.217,-0.607 0.23,-0.6C0.243,-0.592 0.253,-0.58 0.26,-0.565C0.271,-0.542 0.282,-0.517 0.293,-0.49C0.304,-0.462 0.316,-0.435 0.327,-0.408C0.338,-0.38 0.349,-0.352 0.36,-0.325C0.371,-0.298 0.381,-0.272 0.391,-0.248L0.396,-0.248C0.409,-0.281 0.422,-0.314 0.435,-0.347C0.448,-0.38 0.46,-0.411 0.473,-0.441C0.485,-0.471 0.497,-0.499 0.508,-0.526C0.519,-0.553 0.529,-0.577 0.538,-0.598C0.545,-0.601 0.554,-0.604 0.565,-0.607C0.576,-0.61 0.587,-0.611 0.598,-0.611C0.62,-0.611 0.636,-0.608 0.648,-0.601C0.659,-0.594 0.666,-0.585 0.669,-0.572C0.672,-0.56 0.675,-0.54 0.678,-0.513C0.681,-0.485 0.685,-0.453 0.688,-0.417C0.691,-0.381 0.695,-0.343 0.698,-0.303C0.701,-0.262 0.704,-0.223 0.707,-0.186C0.71,-0.148 0.712,-0.113 0.714,-0.082C0.716,-0.05 0.717,-0.025 0.718,-0.007C0.711,-0.002 0.703,0.001 0.695,0.004C0.686,0.006 0.676,0.007 0.665,0.007C0.651,0.007 0.639,0.004 0.629,-0.002C0.618,-0.008 0.612,-0.019 0.611,-0.036C0.608,-0.081 0.606,-0.126 0.604,-0.17C0.601,-0.214 0.599,-0.256 0.597,-0.295C0.595,-0.334 0.593,-0.371 0.592,-0.404C0.59,-0.437 0.588,-0.466 0.587,-0.489L0.583,-0.489C0.57,-0.455 0.553,-0.412 0.532,-0.359C0.51,-0.306 0.482,-0.239 0.448,-0.156Z" style="fill:rgb(50,140,193);fill-rule:nonzero;stroke:rgb(8,60,93);stroke-width:0.02px;stroke-linecap:butt;"/>
        </g>
        <g transform="matrix(180,0,0,180,340.593,692.604)">
            <path d="M0.245,-0.067C0.268,-0.067 0.289,-0.069 0.306,-0.074C0.323,-0.079 0.336,-0.084 0.343,-0.089L0.343,-0.216L0.234,-0.205C0.203,-0.202 0.18,-0.195 0.165,-0.185C0.15,-0.174 0.142,-0.158 0.142,-0.137C0.142,-0.115 0.15,-0.098 0.167,-0.086C0.184,-0.073 0.21,-0.067 0.245,-0.067ZM0.243,-0.482C0.305,-0.482 0.354,-0.468 0.391,-0.442C0.428,-0.415 0.446,-0.372 0.446,-0.314L0.446,-0.081C0.446,-0.066 0.443,-0.054 0.436,-0.046C0.428,-0.037 0.419,-0.029 0.407,-0.022C0.39,-0.012 0.367,-0.003 0.34,0.004C0.313,0.011 0.281,0.015 0.245,0.015C0.18,0.015 0.13,0.002 0.094,-0.023C0.057,-0.048 0.039,-0.086 0.039,-0.135C0.039,-0.179 0.053,-0.213 0.082,-0.236C0.11,-0.259 0.151,-0.274 0.204,-0.279L0.343,-0.293L0.343,-0.315C0.343,-0.344 0.334,-0.366 0.315,-0.379C0.296,-0.392 0.269,-0.399 0.235,-0.399C0.208,-0.399 0.183,-0.395 0.158,-0.388C0.133,-0.381 0.111,-0.372 0.092,-0.363C0.085,-0.368 0.08,-0.375 0.075,-0.383C0.07,-0.39 0.068,-0.399 0.068,-0.408C0.068,-0.419 0.071,-0.429 0.077,-0.436C0.082,-0.443 0.091,-0.45 0.103,-0.455C0.122,-0.464 0.143,-0.471 0.167,-0.476C0.191,-0.48 0.216,-0.482 0.243,-0.482Z" style="fill:rgb(50,140,193);fill-rule:nonzero;stroke:rgb(8,60,93);stroke-width:0.02px;stroke-linecap:butt;"/>
        </g>
        <g transform="matrix(180,0,0,180,436.173,692.604)">
            <path d="M0.281,0.014C0.26,0.014 0.24,0.012 0.221,0.008C0.202,0.003 0.186,-0.002 0.173,-0.009L0.173,0.179C0.168,0.181 0.162,0.183 0.154,0.185C0.145,0.186 0.136,0.187 0.126,0.187C0.107,0.187 0.092,0.183 0.083,0.176C0.074,0.169 0.069,0.156 0.069,0.138L0.069,-0.379C0.069,-0.394 0.072,-0.406 0.077,-0.415C0.082,-0.424 0.092,-0.432 0.107,-0.441C0.126,-0.452 0.149,-0.461 0.176,-0.47C0.203,-0.478 0.233,-0.482 0.267,-0.482C0.302,-0.482 0.334,-0.477 0.364,-0.468C0.394,-0.458 0.42,-0.443 0.442,-0.423C0.464,-0.403 0.481,-0.378 0.494,-0.347C0.507,-0.316 0.513,-0.279 0.513,-0.236C0.513,-0.194 0.507,-0.158 0.496,-0.127C0.484,-0.095 0.468,-0.07 0.448,-0.049C0.427,-0.028 0.403,-0.012 0.375,-0.002C0.346,0.009 0.315,0.014 0.281,0.014ZM0.265,-0.071C0.308,-0.071 0.343,-0.084 0.368,-0.111C0.393,-0.137 0.406,-0.179 0.406,-0.236C0.406,-0.265 0.402,-0.29 0.395,-0.311C0.388,-0.332 0.378,-0.349 0.366,-0.362C0.353,-0.375 0.339,-0.384 0.322,-0.39C0.305,-0.395 0.286,-0.398 0.267,-0.398C0.246,-0.398 0.228,-0.396 0.213,-0.391C0.198,-0.386 0.184,-0.38 0.173,-0.373L0.173,-0.098C0.184,-0.09 0.198,-0.084 0.213,-0.079C0.228,-0.074 0.246,-0.071 0.265,-0.071Z" style="fill:rgb(50,140,193);fill-rule:nonzero;stroke:rgb(8,60,93);stroke-width:0.02px;stroke-linecap:butt;"/>
        </g>
        <g transform="matrix(180,0,0,180,540.033,692.604)">
            <path d="M0.582,-0.077C0.582,-0.063 0.579,-0.051 0.572,-0.043C0.565,-0.034 0.554,-0.025 0.539,-0.018C0.522,-0.009 0.498,-0.001 0.467,0.005C0.436,0.011 0.405,0.014 0.373,0.014C0.326,0.014 0.282,0.008 0.243,-0.005C0.203,-0.017 0.169,-0.036 0.14,-0.062C0.111,-0.088 0.089,-0.121 0.073,-0.161C0.057,-0.201 0.049,-0.248 0.049,-0.303C0.049,-0.356 0.057,-0.403 0.074,-0.443C0.091,-0.483 0.113,-0.516 0.142,-0.543C0.17,-0.569 0.203,-0.589 0.242,-0.602C0.28,-0.615 0.321,-0.622 0.364,-0.622C0.393,-0.622 0.419,-0.62 0.443,-0.615C0.467,-0.61 0.488,-0.603 0.505,-0.595C0.522,-0.587 0.536,-0.578 0.545,-0.568C0.554,-0.557 0.559,-0.546 0.559,-0.535C0.559,-0.524 0.556,-0.514 0.55,-0.506C0.544,-0.497 0.537,-0.491 0.528,-0.486C0.51,-0.497 0.489,-0.508 0.464,-0.518C0.439,-0.528 0.408,-0.533 0.371,-0.533C0.341,-0.533 0.313,-0.528 0.287,-0.518C0.261,-0.508 0.239,-0.493 0.22,-0.474C0.201,-0.455 0.186,-0.431 0.175,-0.402C0.164,-0.373 0.159,-0.34 0.159,-0.303C0.159,-0.264 0.165,-0.23 0.176,-0.201C0.187,-0.171 0.202,-0.148 0.221,-0.129C0.24,-0.11 0.262,-0.097 0.289,-0.088C0.315,-0.079 0.343,-0.074 0.374,-0.074C0.395,-0.074 0.415,-0.076 0.434,-0.08C0.453,-0.083 0.467,-0.088 0.477,-0.093L0.477,-0.253L0.339,-0.253C0.336,-0.257 0.333,-0.263 0.331,-0.271C0.328,-0.278 0.327,-0.286 0.327,-0.294C0.327,-0.309 0.331,-0.321 0.338,-0.328C0.345,-0.335 0.354,-0.339 0.366,-0.339L0.534,-0.339C0.548,-0.339 0.56,-0.335 0.569,-0.327C0.578,-0.318 0.582,-0.306 0.582,-0.291L0.582,-0.077Z" style="fill:rgb(50,140,193);fill-rule:nonzero;stroke:rgb(8,60,93);stroke-width:0.02px;stroke-linecap:butt;"/>
        </g>
        <g transform="matrix(180,0,0,180,661.173,692.604)">
            <path d="M0.245,-0.067C0.268,-0.067 0.289,-0.069 0.306,-0.074C0.323,-0.079 0.336,-0.084 0.343,-0.089L0.343,-0.216L0.234,-0.205C0.203,-0.202 0.18,-0.195 0.165,-0.185C0.15,-0.174 0.142,-0.158 0.142,-0.137C0.142,-0.115 0.15,-0.098 0.167,-0.086C0.184,-0.073 0.21,-0.067 0.245,-0.067ZM0.243,-0.482C0.305,-0.482 0.354,-0.468 0.391,-0.442C0.428,-0.415 0.446,-0.372 0.446,-0.314L0.446,-0.081C0.446,-0.066 0.443,-0.054 0.436,-0.046C0.428,-0.037 0.419,-0.029 0.407,-0.022C0.39,-0.012 0.367,-0.003 0.34,0.004C0.313,0.011 0.281,0.015 0.245,0.015C0.18,0.015 0.13,0.002 0.094,-0.023C0.057,-0.048 0.039,-0.086 0.039,-0.135C0.039,-0.179 0.053,-0.213 0.082,-0.236C0.11,-0.259 0.151,-0.274 0.204,-0.279L0.343,-0.293L0.343,-0.315C0.343,-0.344 0.334,-0.366 0.315,-0.379C0.296,-0.392 0.269,-0.399 0.235,-0.399C0.208,-0.399 0.183,-0.395 0.158,-0.388C0.133,-0.381 0.111,-0.372 0.092,-0.363C0.085,-0.368 0.08,-0.375 0.075,-0.383C0.07,-0.39 0.068,-0.399 0.068,-0.408C0.068,-0.419 0.071,-0.429 0.077,-0.436C0.082,-0.443 0.091,-0.45 0.103,-0.455C0.122,-0.464 0.143,-0.471 0.167,-0.476C0.191,-0.48 0.216,-0.482 0.243,-0.482Z" style="fill:rgb(50,140,193);fill-rule:nonzero;stroke:rgb(8,60,93);stroke-width:0.02px;stroke-linecap:butt;"/>
        </g>
        <g transform="matrix(180,0,0,180,756.753,692.604)">
            <path d="M0.133,0.006C0.114,0.006 0.099,0.002 0.09,-0.005C0.081,-0.012 0.076,-0.025 0.076,-0.042L0.076,-0.649C0.081,-0.65 0.087,-0.652 0.096,-0.654C0.105,-0.656 0.114,-0.657 0.124,-0.657C0.143,-0.657 0.158,-0.653 0.167,-0.646C0.176,-0.639 0.181,-0.626 0.181,-0.609L0.181,-0.002C0.176,0 0.169,0.002 0.161,0.004C0.152,0.005 0.143,0.006 0.133,0.006Z" style="fill:rgb(50,140,193);fill-rule:nonzero;stroke:rgb(8,60,93);stroke-width:0.02px;stroke-linecap:butt;"/>
        </g>
        <g transform="matrix(180,0,0,180,806.793,692.604)">
            <path d="M0.133,0.006C0.114,0.006 0.099,0.002 0.09,-0.005C0.081,-0.012 0.076,-0.025 0.076,-0.042L0.076,-0.649C0.081,-0.65 0.087,-0.652 0.096,-0.654C0.105,-0.656 0.114,-0.657 0.124,-0.657C0.143,-0.657 0.158,-0.653 0.167,-0.646C0.176,-0.639 0.181,-0.626 0.181,-0.609L0.181,-0.002C0.176,0 0.169,0.002 0.161,0.004C0.152,0.005 0.143,0.006 0.133,0.006Z" style="fill:rgb(50,140,193);fill-rule:nonzero;stroke:rgb(8,60,93);stroke-width:0.02px;stroke-linecap:butt;"/>
        </g>
        <g transform="matrix(180,0,0,180,856.473,692.604)">
            <path d="M0.15,-0.181C0.159,-0.143 0.178,-0.115 0.205,-0.097C0.232,-0.078 0.266,-0.069 0.308,-0.069C0.336,-0.069 0.362,-0.073 0.385,-0.082C0.408,-0.091 0.427,-0.1 0.441,-0.11C0.46,-0.099 0.469,-0.084 0.469,-0.065C0.469,-0.054 0.465,-0.043 0.456,-0.034C0.447,-0.024 0.436,-0.016 0.421,-0.009C0.405,-0.002 0.388,0.004 0.368,0.008C0.347,0.012 0.325,0.014 0.302,0.014C0.263,0.014 0.228,0.009 0.197,-0.002C0.165,-0.013 0.138,-0.029 0.115,-0.05C0.092,-0.071 0.075,-0.098 0.063,-0.129C0.05,-0.16 0.044,-0.197 0.044,-0.238C0.044,-0.278 0.05,-0.313 0.062,-0.344C0.074,-0.374 0.09,-0.399 0.111,-0.42C0.132,-0.44 0.156,-0.455 0.184,-0.466C0.212,-0.477 0.242,-0.482 0.274,-0.482C0.306,-0.482 0.335,-0.477 0.362,-0.467C0.388,-0.456 0.411,-0.442 0.43,-0.424C0.448,-0.405 0.463,-0.383 0.474,-0.358C0.484,-0.333 0.489,-0.305 0.489,-0.275C0.489,-0.258 0.485,-0.246 0.477,-0.239C0.469,-0.231 0.457,-0.226 0.442,-0.223L0.15,-0.181ZM0.274,-0.401C0.237,-0.401 0.207,-0.389 0.183,-0.364C0.158,-0.339 0.145,-0.304 0.144,-0.258L0.39,-0.293C0.387,-0.323 0.376,-0.349 0.357,-0.37C0.338,-0.391 0.31,-0.401 0.274,-0.401Z" style="fill:rgb(50,140,193);fill-rule:nonzero;stroke:rgb(8,60,93);stroke-width:0.02px;stroke-linecap:butt;"/>
        </g>
        <g transform="matrix(180,0,0,180,954.933,692.604)">
            <path d="M0.173,-0.002C0.168,0 0.162,0.002 0.154,0.004C0.145,0.005 0.136,0.006 0.126,0.006C0.107,0.006 0.092,0.002 0.083,-0.005C0.074,-0.012 0.069,-0.025 0.069,-0.042L0.069,-0.37C0.069,-0.387 0.072,-0.4 0.079,-0.411C0.086,-0.421 0.096,-0.431 0.111,-0.44C0.13,-0.452 0.155,-0.462 0.185,-0.47C0.215,-0.478 0.248,-0.482 0.284,-0.482C0.343,-0.482 0.372,-0.465 0.372,-0.432C0.372,-0.424 0.371,-0.417 0.368,-0.41C0.365,-0.403 0.362,-0.396 0.359,-0.391C0.352,-0.392 0.344,-0.394 0.334,-0.395C0.324,-0.396 0.313,-0.397 0.302,-0.397C0.275,-0.397 0.251,-0.394 0.229,-0.389C0.207,-0.383 0.188,-0.376 0.173,-0.367L0.173,-0.002Z" style="fill:rgb(50,140,193);fill-rule:nonzero;stroke:rgb(8,60,93);stroke-width:0.02px;stroke-linecap:butt;"/>
        </g>
        <g transform="matrix(180,0,0,180,1031.61,692.604)">
            <path d="M0.158,-0.109C0.141,-0.142 0.121,-0.188 0.097,-0.248C0.073,-0.308 0.05,-0.376 0.027,-0.452C0.033,-0.459 0.041,-0.466 0.051,-0.471C0.061,-0.476 0.072,-0.478 0.083,-0.478C0.098,-0.478 0.11,-0.475 0.119,-0.468C0.128,-0.46 0.136,-0.448 0.142,-0.431C0.16,-0.377 0.179,-0.324 0.198,-0.272C0.217,-0.219 0.239,-0.165 0.262,-0.109L0.266,-0.109C0.276,-0.13 0.286,-0.155 0.297,-0.184C0.307,-0.213 0.317,-0.243 0.327,-0.275C0.337,-0.307 0.346,-0.339 0.355,-0.373C0.364,-0.405 0.371,-0.437 0.378,-0.467C0.385,-0.47 0.392,-0.473 0.399,-0.475C0.406,-0.477 0.414,-0.478 0.423,-0.478C0.438,-0.478 0.45,-0.475 0.46,-0.468C0.47,-0.46 0.475,-0.45 0.475,-0.435C0.475,-0.418 0.471,-0.391 0.462,-0.356C0.452,-0.32 0.441,-0.281 0.426,-0.238C0.411,-0.195 0.395,-0.151 0.376,-0.107C0.357,-0.063 0.339,-0.024 0.32,0.01C0.287,0.069 0.257,0.113 0.23,0.144C0.203,0.175 0.177,0.19 0.153,0.19C0.134,0.19 0.119,0.185 0.109,0.175C0.097,0.164 0.091,0.151 0.088,0.136C0.099,0.127 0.11,0.115 0.123,0.102C0.136,0.089 0.148,0.074 0.161,0.059C0.174,0.044 0.186,0.028 0.197,0.012C0.208,-0.005 0.218,-0.021 0.226,-0.036C0.215,-0.039 0.204,-0.046 0.193,-0.056C0.182,-0.065 0.171,-0.083 0.158,-0.109Z" style="fill:rgb(50,140,193);fill-rule:nonzero;stroke:rgb(8,60,93);stroke-width:0.02px;stroke-linecap:butt;"/>
        </g>
    </g>
</svg>
